<svg width="1735" height="321" viewBox="0 0 1735 321" fill="none" xmlns="http://www.w3.org/2000/svg">
<path d="M1694.87 13.3191H1300.4H912.811V148.2V306.797H925.01C933.143 306.797 953.476 306.797 969.743 306.797L994.142 306.797V152.267V33.3766H1343.86H1521.03H1694.87C1714.92 63.463 1734.98 36.7196 1734.98 23.3478C1734.98 -0.0526733 1711.58 -10.0815 1694.87 13.3191Z" fill="url(#paint0_linear_634_87)"/>
<path d="M640.349 14.0023C640.349 15.6927 659.071 56.8256 682.796 101.903L725.726 183.042H694.658H663.59L645.514 153.741L627.438 124.441L608.797 156.559C599.194 174.59 578.294 214.032 563.042 245.023L549.975 268.799L538.212 287.439H290.835H43.4581C43.4581 280.999 36.7723 274.067 25.8453 274.067C10.0288 274.067 0 283.381 0 297.468C0 311.554 13.3717 320.868 25.8453 320.868C38.3189 320.868 43.4581 314.182 43.4581 307.497L347.665 307.497H645.514L663.59 281.648L678.842 256.292H720.078H761.314L774.871 281.648L788.428 307.004H838.137H888.411L847.175 229.246C825.145 186.986 790.122 121.061 769.787 83.3084L733.07 14.0023H686.75C660.766 14.0023 640.349 14.0023 640.349 14.0023Z" fill="url(#paint1_linear_634_87)"/>
<path d="M50.1445 46.9763C50.1445 46.9763 50.1445 66.6401 50.1445 77.4085V100.233H95.7929H133.833V177.951V218.157V267.382H164.265H194.698V218.157V177.951V100.233H232.738H278.386V73.6045V46.9763H164.265C103.72 46.4635 53.9486 46.9763 50.1445 46.9763Z" fill="white"/>
<path d="M1420.75 53.6696C1420.75 53.6696 1420.75 74.0145 1420.75 85.1559V108.771H1467.98H1507.33V189.18V230.78V274.067L1539.06 274.067L1570.31 274.067V230.78V189.18V108.771H1609.66H1656.89V81.2201V53.6696H1538.82C1476.18 53.1391 1424.68 53.6696 1420.75 53.6696Z" fill="#FFFEFE"/>
<path d="M304.207 46.7483C304.207 50.5523 304.207 108.78 304.207 164.673V267.382L338.443 267.382C368.876 267.382 332.843 267.382 365.072 267.382V221.734H399.308H437.348L463.976 267.382H475.388H486.8C512.07 267.382 528.645 267.382 528.645 267.382C520.963 257.095 493.385 214.125 490.604 210.321C492.582 206.517 493.994 204.131 505.82 191.301C530.366 164.673 524.841 176.085 524.841 136.059V100.005L498.627 69.5724L463.011 46.7483H395.504C357.761 46.7483 308.011 46.7483 304.207 46.7483ZM465.912 115.221C471.584 136.059 471.584 138.045 463.976 153.261C453.876 163.517 446.253 160.869 406.916 160.869H365.072L365.072 136.059L365.072 107.464H406.916C448.911 107.464 455.812 102.914 465.912 115.221Z" fill="white"/>
<path d="M1032.97 53.434C1032.97 57.2546 1032.97 109.916 1032.97 179.956V275.022H1052.07H1094.09V194.792V114.562H1116.7C1154.91 115.749 1157.75 110.946 1170.97 124.336C1184.72 138.241 1185.79 141.305 1185.79 207.621V275.022H1208.71L1246.91 275.022V202.433V122.203L1208.71 83.9979L1174.32 53.434H1105.56C1058.5 53.434 1039.35 53.434 1032.97 53.434Z" fill="#FFFEFE"/>
<path d="M1333.83 53.4338C1333.83 57.3737 1333.83 112.532 1333.83 167.69L1333.83 274.067H1373.23H1396.87V163.751V53.4338H1377.17C1366.81 53.4338 1337.77 53.4338 1333.83 53.4338Z" fill="#FFFEFE"/>
<defs>
<linearGradient id="paint0_linear_634_87" x1="1322.76" y1="313.249" x2="1322.76" y2="-26.7962" gradientUnits="userSpaceOnUse">
<stop stop-color="#B16CC2"/>
<stop offset="1" stop-color="#6CD7E6"/>
</linearGradient>
<linearGradient id="paint1_linear_634_87" x1="449.22" y1="323.062" x2="449.22" y2="14.0022" gradientUnits="userSpaceOnUse">
<stop stop-color="#B16CC2"/>
<stop offset="1" stop-color="#6CD7E6"/>
</linearGradient>
</defs>
</svg>
